HIERARCHY
ROOT Hips
{
  OFFSET -13.859 91.1892 21.8595
  CHANNELS 6 Xposition Yposition Zposition Zrotation Xrotation Yrotation
  JOINT Spine
  {
    OFFSET 10.8089 -0.851415 0
    CHANNELS 3 Zrotation Xrotation Yrotation
    JOINT Spine1
    {
      OFFSET 18.8753 3.80116 0
      CHANNELS 3 Zrotation Xrotation Yrotation
      JOINT Spine2
      {
        OFFSET 13.4073 0.420477 0
        CHANNELS 3 Zrotation Xrotation Yrotation
        JOINT LeftShoulder
        {
          OFFSET 11.8837 -2.73209 -3.78198
          CHANNELS 3 Zrotation Xrotation Yrotation
          JOINT LeftArm
          {
            OFFSET 15.7849 0 0
            CHANNELS 3 Zrotation Xrotation Yrotation
            JOINT LeftForeArm
            {
              OFFSET 30.3399 0 0
              CHANNELS 3 Zrotation Xrotation Yrotation
              JOINT LeftHand
              {
                OFFSET 26.9751 0 0
                CHANNELS 3 Zrotation Xrotation Yrotation
                End Site
                {
                  OFFSET 8 0 0
                }
              }
            }
          }
        }
        JOINT RightShoulder
        {
          OFFSET 11.8838 -2.7321 3.782
          CHANNELS 3 Zrotation Xrotation Yrotation
          JOINT RightArm
          {
            OFFSET -15.7848 0 0
            CHANNELS 3 Zrotation Xrotation Yrotation
            JOINT RightForeArm
            {
              OFFSET -30.34 0 0
              CHANNELS 3 Zrotation Xrotation Yrotation
              JOINT RightHand
              {
                OFFSET -26.9752 2.55532e-05 0
                CHANNELS 3 Zrotation Xrotation Yrotation
                End Site
                {
                  OFFSET -8 0 0
                }
              }
            }
          }
        }
        JOINT Neck
        {
          OFFSET 16.5588 -0.355317 0
          CHANNELS 3 Zrotation Xrotation Yrotation
          JOINT Head
          {
            OFFSET 9.28362 0.364158 0
            CHANNELS 3 Zrotation Xrotation Yrotation
            End Site
            {
              OFFSET 5.28361 0.364157 0
            }
          }
        }
      }
    }
  }
  JOINT LeftUpLeg
  {
    OFFSET -1.44882 -0.531424 -9.00581
    CHANNELS 3 Zrotation Xrotation Yrotation
    JOINT LeftLeg
    {
      OFFSET -42.572 0 0
      CHANNELS 3 Zrotation Xrotation Yrotation
      JOINT LeftFoot
      {
        OFFSET -40.1967 0 0
        CHANNELS 3 Zrotation Xrotation Yrotation
        JOINT LeftToe
        {
          OFFSET -10.4538 -16.5779 0.0801573
          CHANNELS 3 Zrotation Xrotation Yrotation
          End Site
          {
            OFFSET 3 0 0
          }
        }
      }
    }
  }
  JOINT RightUpLeg
  {
    OFFSET -1.44865 -0.531428 9.0058
    CHANNELS 3 Zrotation Xrotation Yrotation
    JOINT RightLeg
    {
      OFFSET 42.5723 0 0
      CHANNELS 3 Zrotation Xrotation Yrotation
      JOINT RightFoot
      {
        OFFSET 40.1968 0 -1.14441e-05
        CHANNELS 3 Zrotation Xrotation Yrotation
        JOINT RightToe
        {
          OFFSET 10.4538 16.5778 -0.0801582
          CHANNELS 3 Zrotation Xrotation Yrotation
          End Site
          {
            OFFSET -3 0 0
          }
        }
      }
    }
  }
}
MOTION
Frames:	8
Frame Time:	0.0333333
-25.5048 91.2385 -3.26071 82.8284 -57.7299 -0.355456 -6.96417 1.55232 -1.39701 14.4758 2.32653 -3.46922 3.18846 2.1557 -3.57779 -7.46543 30.5023 98.3235 -4.15867 9.42061 79.4077 -9.49262 -5.71068 -4.52678 -7.16521 -36.2892 1.12658 174.656 29.4972 95.6557 -35.1277 12.0992 84.8378 -32.0867 -2.96906 -16.7569 -19.1019 -75.4728 -15.82 -12.1017 -3.34244 6.87347 -14.8997 -10.8267 -3.69698 40.1762 10.3553 -1.06222 -40.9336 -4.61822 -1.90666 -6.7416 2.70244 0.08271 -91.8836 0.00394553 0.00895438 168.628 3.52395 0.85433 -30.8534 -6.29305 -2.74175 -21.2003 -9.67998 -5.74608 -91.8836 0.00394166 0.00895438 
-22.3281 91.3456 1.41033 83.7402 -57.8524 -0.961579 -7.29313 1.60469 -1.15176 13.8201 2.5567 -3.01206 2.53443 2.4077 -3.13239 -7.42292 30.5351 98.3156 -13.4857 11.2936 82.0534 -11.3158 -5.61488 -5.37276 -8.35638 -44.5817 -0.461006 174.442 29.6363 95.9079 -35.1981 11.6733 84.4908 -28.8351 -3.52652 -15.2896 -16.706 -74.3772 -13.7533 -11.0069 -3.01211 6.91543 -14.2846 -10.6547 -2.87584 37.3475 12.5551 -0.426892 -43.7593 -4.5221 -2.36405 -3.79067 1.86496 -0.335142 -91.8836 0.00394553 0.00895438 176.444 3.0037 0.102854 -46.2069 -4.8551 -4.67403 -19.7878 -11.4525 -6.6345 -91.8836 0.00394166 0.00895438 
-18.816 91.7038 5.58979 85.0041 -56.4678 -3.88355 -7.43007 1.06385 -0.464419 13.5253 1.84156 -1.41362 2.24157 1.77087 -1.50125 -7.23611 30.5277 98.2652 -26.3511 14.0846 84.7104 -13.5881 -5.56349 -6.3248 -11.2243 -56.8381 -4.08818 174.439 29.6127 95.8277 -37.4627 11.8713 84.7289 -28.4036 -3.6778 -15.1085 -18.826 -75.2353 -15.6052 -11.6617 -2.51583 7.01982 -13.8434 -9.67719 -2.35183 31.7929 14.6844 4.07834 -43.6102 -4.7278 -2.50724 -1.43648 1.17697 -0.59813 -91.8836 0.00394553 0.00895438 -175.805 5.02697 -4.46676 -58.2327 -3.2016 -5.74024 -12.8617 -7.76227 -3.959 -91.8836 0.00394166 0.00895438 
-15.6711 92.0322 9.91138 85.3633 -55.1755 -4.10403 -7.5066 0.738572 -0.520037 13.3656 1.18432 -1.36403 2.08113 1.11679 -1.41983 -7.28076 30.4467 98.3068 -32.8471 13.1291 86.4374 -14.4134 -5.57645 -6.7097 -11.7909 -58.9997 -4.97068 174.318 29.6023 95.9746 -37.4133 11.3067 84.197 -27.0186 -4.07432 -14.3707 -15.9316 -70.1937 -12.3274 -11.8696 -2.31685 7.22747 -13.8065 -9.35331 -1.80107 27.8836 14.1459 5.39542 -44.1236 -4.79357 -2.68004 2.12511 1.30744 -0.678089 -91.8836 0.00394553 0.00895438 -168.259 6.5892 -5.41037 -64.9277 -2.12715 -6.02382 -7.25817 -2.4078 -1.7928 -91.8836 0.00394166 0.00895438 
-12.6445 92.0605 14.0716 84.9225 -54.4798 -4.67566 -7.5672 0.636902 -0.602977 13.2425 0.947943 -1.4757 1.95766 0.875295 -1.5199 -7.33792 30.3114 98.2747 -35.941 10.5782 87.3387 -15.5783 -5.47117 -7.27259 -11.0285 -56.9545 -4.0371 174.311 29.582 95.9647 -36.4492 11.3269 84.3252 -27.2506 -3.95018 -14.4916 -13.512 -68.4736 -10.157 -11.9426 -2.23103 7.15297 -13.5473 -9.4466 -1.10444 24.7826 13.793 5.94866 -44.9052 -4.78694 -2.8783 5.78173 1.04788 -0.866969 -91.8836 0.00394553 0.00895438 -160.569 7.22863 -5.86184 -68.2677 -1.51723 -5.91001 -1.86837 3.55431 -0.505884 -91.8836 0.00394166 0.00895438 
-9.59071 91.8165 18.2217 84.9617 -53.9037 -5.98168 -7.62691 0.439453 -0.399554 13.1202 0.66241 -0.985734 1.83574 0.613851 -1.01668 -7.26836 30.2412 98.181 -38.7593 9.27495 87.6601 -18.1261 -5.33814 -8.3335 -11.22 -57.7152 -4.42391 174.3 29.5422 95.917 -36.7422 11.7642 84.9455 -27.0463 -3.95118 -14.4387 -15.1993 -71.2842 -11.8925 -12.5423 -2.20313 6.96297 -13.4467 -9.21489 -1.51134 20.9016 13.7602 7.68727 -45.1888 -4.81106 -3.04871 9.00046 1.54133 -0.920662 -91.8836 0.00394553 0.00895438 -153.594 6.18075 -6.94506 -68.6 -1.38467 -5.56158 3.17482 5.96006 -0.567823 -91.8836 0.00394166 0.00895438 
-6.45716 91.4652 22.4762 85.3293 -52.4322 -6.84524 -7.7968 0.0303498 -0.298272 12.7772 -0.0826719 -0.593595 1.49287 -0.111341 -0.588875 -7.02646 30.1523 97.9395 -45.2341 8.76732 88.1037 -22.3915 -5.00877 -10.0792 -13.566 -64.2056 -7.15077 174.269 29.4997 95.861 -37.7448 11.6512 85.3197 -26.7422 -3.97846 -14.3335 -17.1119 -73.6786 -13.8917 -12.1081 -2.08629 7.24469 -13.3565 -8.93625 -1.57323 16.5884 12.5338 9.62979 -44.7494 -4.89957 -3.13829 11.8851 2.19507 -1.01289 -91.8836 0.00394553 0.00895438 -148.428 4.34699 -7.65321 -64.443 -1.84508 -5.00471 6.23254 4.72015 -0.907321 -91.8836 0.00394166 0.00895438 
-3.42422 91.4697 26.7833 84.9997 -51.4205 -8.06802 -7.80116 -0.233383 -0.175065 12.7688 -0.536473 -0.228965 1.48464 -0.546933 -0.202665 -6.73743 30.06 97.6517 -50.8489 8.49234 87.9972 -26.6365 -4.38756 -11.9027 -17.3173 -69.8538 -10.6171 174.293 29.4429 95.7608 -38.1726 12.0392 86.0514 -26.855 -3.9895 -14.3811 -17.1838 -73.4096 -13.9472 -12.017 -2.20754 7.35562 -13.485 -9.01572 -1.97737 11.7789 11.9833 10.7138 -42.1416 -5.21648 -2.89201 13.2271 2.56515 -1.08987 -91.8836 0.00394553 0.00895438 -144.699 2.28202 -7.97428 -56.1088 -2.73172 -4.16422 5.59993 4.25484 -0.853007 -91.8836 0.00394166 0.00895438 
